<mxfile host="Electron" agent="Mozilla/5.0 (Windows NT 10.0; Win64; x64) AppleWebKit/537.36 (KHTML, like Gecko) draw.io/26.0.9 Chrome/128.0.6613.186 Electron/32.2.5 Safari/537.36" version="26.0.9">
  <diagram name="Страница — 1" id="_N2DM0PR4l1nnNRdb1z9">
    <mxGraphModel dx="1750" dy="1035" grid="1" gridSize="10" guides="1" tooltips="1" connect="1" arrows="1" fold="1" page="1" pageScale="1" pageWidth="1200" pageHeight="1600" math="0" shadow="0">
      <root>
        <mxCell id="0" />
        <mxCell id="1" parent="0" />
        <mxCell id="ocoKOHg3D9VgViNgcDqN-7" value="&lt;font face=&quot;Lucida Console&quot;&gt;AdjustUI()&lt;/font&gt;" style="shape=hexagon;perimeter=hexagonPerimeter2;whiteSpace=wrap;html=1;fixedSize=1;" vertex="1" parent="1">
          <mxGeometry x="560" y="120" width="120" height="80" as="geometry" />
        </mxCell>
        <mxCell id="ocoKOHg3D9VgViNgcDqN-14" value="&lt;font face=&quot;Lucida Console&quot;&gt;UpdateMenuInfo(ID, UptieLevel&lt;span style=&quot;color: light-dark(rgb(0, 0, 0), rgb(255, 255, 255)); background-color: transparent;&quot;&gt;)&lt;/span&gt;&lt;/font&gt;" style="shape=hexagon;perimeter=hexagonPerimeter2;whiteSpace=wrap;html=1;fixedSize=1;" vertex="1" parent="1">
          <mxGeometry x="540" y="240" width="160" height="80" as="geometry" />
        </mxCell>
        <mxCell id="ocoKOHg3D9VgViNgcDqN-17" value="" style="shape=flexArrow;endArrow=classic;html=1;rounded=0;exitX=0.5;exitY=1;exitDx=0;exitDy=0;entryX=0.5;entryY=0;entryDx=0;entryDy=0;" edge="1" parent="1" source="ocoKOHg3D9VgViNgcDqN-7" target="ocoKOHg3D9VgViNgcDqN-14">
          <mxGeometry width="50" height="50" relative="1" as="geometry">
            <mxPoint x="760" y="180" as="sourcePoint" />
            <mxPoint x="810" y="130" as="targetPoint" />
          </mxGeometry>
        </mxCell>
        <mxCell id="ocoKOHg3D9VgViNgcDqN-19" value="&lt;ul&gt;&lt;li style=&quot;text-align: left;&quot;&gt;&lt;span style=&quot;background-color: transparent; color: light-dark(rgb(0, 0, 0), rgb(255, 255, 255));&quot;&gt;Все изменения и взаимодействие с Json_Dictionary происходят внутри класса&amp;nbsp; MainWindow.&lt;/span&gt;&lt;br&gt;&lt;/li&gt;&lt;li style=&quot;text-align: left;&quot;&gt;&lt;span style=&quot;background-color: transparent; color: light-dark(rgb(0, 0, 0), rgb(255, 255, 255));&quot;&gt;Mode @ x.cs выполняют роль вспомогательных функций для&amp;nbsp; изменения интерфейса&lt;/span&gt;&lt;br&gt;&lt;/li&gt;&lt;/ul&gt;" style="text;html=1;align=center;verticalAlign=middle;whiteSpace=wrap;rounded=0;" vertex="1" parent="1">
          <mxGeometry x="260" width="260" height="220" as="geometry" />
        </mxCell>
        <mxCell id="ocoKOHg3D9VgViNgcDqN-20" value="UptieLevel = 0 ?" style="shape=process;whiteSpace=wrap;html=1;backgroundOutline=1;size=0.07692307692307693;" vertex="1" parent="1">
          <mxGeometry x="460" y="350" width="130" height="60" as="geometry" />
        </mxCell>
        <mxCell id="ocoKOHg3D9VgViNgcDqN-1" value="Загрузка Skills_x.json" style="rounded=0;whiteSpace=wrap;html=1;" vertex="1" parent="1">
          <mxGeometry x="555" y="20" width="130" height="60" as="geometry" />
        </mxCell>
        <mxCell id="ocoKOHg3D9VgViNgcDqN-11" value="" style="endArrow=classic;html=1;rounded=0;entryX=0.5;entryY=0;entryDx=0;entryDy=0;" edge="1" parent="1" target="ocoKOHg3D9VgViNgcDqN-7">
          <mxGeometry width="50" height="50" relative="1" as="geometry">
            <mxPoint x="620" y="80" as="sourcePoint" />
            <mxPoint x="670" y="30" as="targetPoint" />
          </mxGeometry>
        </mxCell>
        <mxCell id="ocoKOHg3D9VgViNgcDqN-23" value="" style="endArrow=classic;html=1;rounded=0;exitX=0;exitY=0.5;exitDx=0;exitDy=0;entryX=0.5;entryY=0;entryDx=0;entryDy=0;" edge="1" parent="1" source="ocoKOHg3D9VgViNgcDqN-14" target="ocoKOHg3D9VgViNgcDqN-20">
          <mxGeometry width="50" height="50" relative="1" as="geometry">
            <mxPoint x="590" y="290" as="sourcePoint" />
            <mxPoint x="640" y="240" as="targetPoint" />
            <Array as="points">
              <mxPoint x="525" y="280" />
            </Array>
          </mxGeometry>
        </mxCell>
        <mxCell id="ocoKOHg3D9VgViNgcDqN-24" value="Текущий уровень связи = Самый первый из списка уровней&lt;div&gt;&lt;span style=&quot;background-color: transparent; color: light-dark(rgb(0, 0, 0), rgb(255, 255, 255));&quot;&gt;связи этого ID&lt;/span&gt;&lt;/div&gt;" style="shape=hexagon;perimeter=hexagonPerimeter2;whiteSpace=wrap;html=1;fixedSize=1;" vertex="1" parent="1">
          <mxGeometry x="310" y="465" width="220" height="85" as="geometry" />
        </mxCell>
        <mxCell id="ocoKOHg3D9VgViNgcDqN-28" value="" style="endArrow=classic;html=1;rounded=0;exitX=0;exitY=0.5;exitDx=0;exitDy=0;entryX=0.5;entryY=0;entryDx=0;entryDy=0;" edge="1" parent="1" source="ocoKOHg3D9VgViNgcDqN-20" target="ocoKOHg3D9VgViNgcDqN-24">
          <mxGeometry relative="1" as="geometry">
            <mxPoint x="570" y="440" as="sourcePoint" />
            <mxPoint x="670" y="440" as="targetPoint" />
            <Array as="points">
              <mxPoint x="420" y="380" />
            </Array>
          </mxGeometry>
        </mxCell>
        <mxCell id="ocoKOHg3D9VgViNgcDqN-29" value="Да&lt;div&gt;(Переключение между ID&lt;span style=&quot;background-color: light-dark(#ffffff, var(--ge-dark-color, #121212)); color: light-dark(rgb(0, 0, 0), rgb(255, 255, 255));&quot;&gt;)&lt;/span&gt;&lt;/div&gt;" style="edgeLabel;resizable=0;html=1;;align=center;verticalAlign=middle;" connectable="0" vertex="1" parent="ocoKOHg3D9VgViNgcDqN-28">
          <mxGeometry relative="1" as="geometry">
            <mxPoint y="35" as="offset" />
          </mxGeometry>
        </mxCell>
        <mxCell id="ocoKOHg3D9VgViNgcDqN-30" value="" style="endArrow=classic;html=1;rounded=0;" edge="1" parent="1">
          <mxGeometry relative="1" as="geometry">
            <mxPoint x="590" y="379.72" as="sourcePoint" />
            <mxPoint x="680" y="610" as="targetPoint" />
            <Array as="points">
              <mxPoint x="680" y="380" />
            </Array>
          </mxGeometry>
        </mxCell>
        <mxCell id="ocoKOHg3D9VgViNgcDqN-31" value="Нет&lt;div&gt;(Переключение между Уровнями связи)&lt;/div&gt;" style="edgeLabel;resizable=0;html=1;;align=center;verticalAlign=middle;" connectable="0" vertex="1" parent="ocoKOHg3D9VgViNgcDqN-30">
          <mxGeometry relative="1" as="geometry">
            <mxPoint y="-10" as="offset" />
          </mxGeometry>
        </mxCell>
        <mxCell id="ocoKOHg3D9VgViNgcDqN-82" value="Выбранный уровень связи" style="edgeLabel;html=1;align=center;verticalAlign=middle;resizable=0;points=[];" vertex="1" connectable="0" parent="ocoKOHg3D9VgViNgcDqN-30">
          <mxGeometry x="0.3761" y="-2" relative="1" as="geometry">
            <mxPoint as="offset" />
          </mxGeometry>
        </mxCell>
        <mxCell id="ocoKOHg3D9VgViNgcDqN-33" value="&lt;font face=&quot;Lucida Console&quot;&gt;ResetInformationVisiblity()&lt;/font&gt;" style="shape=hexagon;perimeter=hexagonPerimeter2;whiteSpace=wrap;html=1;fixedSize=1;" vertex="1" parent="1">
          <mxGeometry x="830" y="255" width="230" height="50" as="geometry" />
        </mxCell>
        <mxCell id="ocoKOHg3D9VgViNgcDqN-34" value="" style="endArrow=classic;html=1;rounded=0;entryX=0;entryY=0.5;entryDx=0;entryDy=0;exitX=1;exitY=0.5;exitDx=0;exitDy=0;" edge="1" parent="1" source="ocoKOHg3D9VgViNgcDqN-14" target="ocoKOHg3D9VgViNgcDqN-33">
          <mxGeometry width="50" height="50" relative="1" as="geometry">
            <mxPoint x="691" y="280" as="sourcePoint" />
            <mxPoint x="750" y="390" as="targetPoint" />
          </mxGeometry>
        </mxCell>
        <mxCell id="ocoKOHg3D9VgViNgcDqN-35" value="&lt;font face=&quot;Lucida Console&quot;&gt;CheckCoinsAvalible(SkillID, UptieLevel)&lt;/font&gt;" style="shape=hexagon;perimeter=hexagonPerimeter2;whiteSpace=wrap;html=1;fixedSize=1;" vertex="1" parent="1">
          <mxGeometry x="800" y="340" width="240" height="50" as="geometry" />
        </mxCell>
        <mxCell id="ocoKOHg3D9VgViNgcDqN-37" value="" style="endArrow=classic;html=1;rounded=0;exitX=0.5;exitY=1;exitDx=0;exitDy=0;" edge="1" parent="1" source="ocoKOHg3D9VgViNgcDqN-33">
          <mxGeometry width="50" height="50" relative="1" as="geometry">
            <mxPoint x="750" y="280" as="sourcePoint" />
            <mxPoint x="920" y="340" as="targetPoint" />
            <Array as="points">
              <mxPoint x="945" y="320" />
              <mxPoint x="920" y="320" />
            </Array>
          </mxGeometry>
        </mxCell>
        <mxCell id="ocoKOHg3D9VgViNgcDqN-38" value="&lt;font face=&quot;Lucida Console&quot;&gt;UnlockAvalibleCoins(List)&lt;/font&gt;&lt;div&gt;[Разблокировать кнопки доступных&lt;/div&gt;&lt;div&gt;монет навыка и отобразить их на поле предпросмотра]&lt;/div&gt;" style="shape=hexagon;perimeter=hexagonPerimeter2;whiteSpace=wrap;html=1;fixedSize=1;" vertex="1" parent="1">
          <mxGeometry x="800" y="440" width="240" height="90" as="geometry" />
        </mxCell>
        <mxCell id="ocoKOHg3D9VgViNgcDqN-41" value="Текущий ID = Самый первый из списка" style="rounded=0;whiteSpace=wrap;html=1;" vertex="1" parent="1">
          <mxGeometry x="720" y="130" width="140" height="60" as="geometry" />
        </mxCell>
        <mxCell id="ocoKOHg3D9VgViNgcDqN-42" value="" style="endArrow=classic;html=1;rounded=0;exitX=0.5;exitY=1;exitDx=0;exitDy=0;entryX=1;entryY=0.25;entryDx=0;entryDy=0;" edge="1" parent="1" source="ocoKOHg3D9VgViNgcDqN-41" target="ocoKOHg3D9VgViNgcDqN-14">
          <mxGeometry relative="1" as="geometry">
            <mxPoint x="720" y="260" as="sourcePoint" />
            <mxPoint x="820" y="260" as="targetPoint" />
            <Array as="points">
              <mxPoint x="790" y="263" />
            </Array>
          </mxGeometry>
        </mxCell>
        <mxCell id="ocoKOHg3D9VgViNgcDqN-43" value="ID" style="edgeLabel;resizable=0;html=1;;align=center;verticalAlign=middle;" connectable="0" vertex="1" parent="ocoKOHg3D9VgViNgcDqN-42">
          <mxGeometry relative="1" as="geometry">
            <mxPoint x="-32" as="offset" />
          </mxGeometry>
        </mxCell>
        <mxCell id="ocoKOHg3D9VgViNgcDqN-45" value="" style="endArrow=classic;html=1;rounded=0;exitX=1;exitY=0.5;exitDx=0;exitDy=0;entryX=0.5;entryY=0;entryDx=0;entryDy=0;" edge="1" parent="1" source="ocoKOHg3D9VgViNgcDqN-1" target="ocoKOHg3D9VgViNgcDqN-41">
          <mxGeometry width="50" height="50" relative="1" as="geometry">
            <mxPoint x="690" y="300" as="sourcePoint" />
            <mxPoint x="740" y="250" as="targetPoint" />
            <Array as="points">
              <mxPoint x="790" y="50" />
            </Array>
          </mxGeometry>
        </mxCell>
        <mxCell id="ocoKOHg3D9VgViNgcDqN-46" value="" style="endArrow=classic;html=1;rounded=0;exitX=0.5;exitY=1;exitDx=0;exitDy=0;entryX=0.5;entryY=0;entryDx=0;entryDy=0;" edge="1" parent="1" source="ocoKOHg3D9VgViNgcDqN-35" target="ocoKOHg3D9VgViNgcDqN-38">
          <mxGeometry relative="1" as="geometry">
            <mxPoint x="780" y="400" as="sourcePoint" />
            <mxPoint x="880" y="400" as="targetPoint" />
          </mxGeometry>
        </mxCell>
        <mxCell id="ocoKOHg3D9VgViNgcDqN-48" value="Список номеров доступных монет" style="edgeLabel;html=1;align=center;verticalAlign=middle;resizable=0;points=[];" vertex="1" connectable="0" parent="ocoKOHg3D9VgViNgcDqN-46">
          <mxGeometry x="-0.0167" y="-1" relative="1" as="geometry">
            <mxPoint x="1" as="offset" />
          </mxGeometry>
        </mxCell>
        <mxCell id="ocoKOHg3D9VgViNgcDqN-50" value="" style="endArrow=classic;html=1;rounded=0;entryX=0.5;entryY=0;entryDx=0;entryDy=0;" edge="1" parent="1" target="ocoKOHg3D9VgViNgcDqN-51">
          <mxGeometry width="50" height="50" relative="1" as="geometry">
            <mxPoint x="810" y="280" as="sourcePoint" />
            <mxPoint x="1130" y="255" as="targetPoint" />
            <Array as="points">
              <mxPoint x="810" y="240" />
              <mxPoint x="950" y="240" />
              <mxPoint x="950" y="200" />
              <mxPoint x="1310" y="200" />
            </Array>
          </mxGeometry>
        </mxCell>
        <mxCell id="ocoKOHg3D9VgViNgcDqN-51" value="Описание пустое и в буфере пусто?" style="shape=process;whiteSpace=wrap;html=1;backgroundOutline=1;" vertex="1" parent="1">
          <mxGeometry x="1250" y="250" width="120" height="60" as="geometry" />
        </mxCell>
        <mxCell id="ocoKOHg3D9VgViNgcDqN-54" value="Оставить нулевую высоту элемента в поле предпросмотра" style="rounded=1;whiteSpace=wrap;html=1;" vertex="1" parent="1">
          <mxGeometry x="1245" y="350" width="130" height="60" as="geometry" />
        </mxCell>
        <mxCell id="ocoKOHg3D9VgViNgcDqN-56" value="" style="endArrow=classic;html=1;rounded=0;exitX=0.5;exitY=1;exitDx=0;exitDy=0;entryX=0.5;entryY=0;entryDx=0;entryDy=0;" edge="1" parent="1" source="ocoKOHg3D9VgViNgcDqN-51" target="ocoKOHg3D9VgViNgcDqN-54">
          <mxGeometry relative="1" as="geometry">
            <mxPoint x="1050" y="340" as="sourcePoint" />
            <mxPoint x="1150" y="340" as="targetPoint" />
          </mxGeometry>
        </mxCell>
        <mxCell id="ocoKOHg3D9VgViNgcDqN-57" value="Да" style="edgeLabel;resizable=0;html=1;;align=center;verticalAlign=middle;" connectable="0" vertex="1" parent="ocoKOHg3D9VgViNgcDqN-56">
          <mxGeometry relative="1" as="geometry" />
        </mxCell>
        <mxCell id="ocoKOHg3D9VgViNgcDqN-58" value="Показать в поле предпросмотра" style="rounded=1;whiteSpace=wrap;html=1;" vertex="1" parent="1">
          <mxGeometry x="1390" y="350" width="130" height="60" as="geometry" />
        </mxCell>
        <mxCell id="ocoKOHg3D9VgViNgcDqN-59" value="" style="endArrow=classic;html=1;rounded=0;exitX=1;exitY=0.5;exitDx=0;exitDy=0;entryX=0.5;entryY=0;entryDx=0;entryDy=0;" edge="1" parent="1" source="ocoKOHg3D9VgViNgcDqN-51" target="ocoKOHg3D9VgViNgcDqN-58">
          <mxGeometry relative="1" as="geometry">
            <mxPoint x="1050" y="340" as="sourcePoint" />
            <mxPoint x="1150" y="340" as="targetPoint" />
            <Array as="points">
              <mxPoint x="1455" y="280" />
            </Array>
          </mxGeometry>
        </mxCell>
        <mxCell id="ocoKOHg3D9VgViNgcDqN-60" value="Нет" style="edgeLabel;resizable=0;html=1;;align=center;verticalAlign=middle;" connectable="0" vertex="1" parent="ocoKOHg3D9VgViNgcDqN-59">
          <mxGeometry relative="1" as="geometry">
            <mxPoint x="7" y="50" as="offset" />
          </mxGeometry>
        </mxCell>
        <mxCell id="ocoKOHg3D9VgViNgcDqN-67" value="" style="endArrow=classic;html=1;rounded=0;exitX=0.5;exitY=1;exitDx=0;exitDy=0;" edge="1" parent="1" source="ocoKOHg3D9VgViNgcDqN-24">
          <mxGeometry relative="1" as="geometry">
            <mxPoint x="780" y="500" as="sourcePoint" />
            <mxPoint x="680" y="580" as="targetPoint" />
            <Array as="points">
              <mxPoint x="420" y="580" />
            </Array>
          </mxGeometry>
        </mxCell>
        <mxCell id="ocoKOHg3D9VgViNgcDqN-81" value="Уровень связи (первый по списку)" style="edgeLabel;html=1;align=center;verticalAlign=middle;resizable=0;points=[];" vertex="1" connectable="0" parent="ocoKOHg3D9VgViNgcDqN-67">
          <mxGeometry x="-0.0495" y="-2" relative="1" as="geometry">
            <mxPoint x="32" as="offset" />
          </mxGeometry>
        </mxCell>
        <mxCell id="ocoKOHg3D9VgViNgcDqN-70" value="Текущее редактируемое&lt;div&gt;поле &lt;font face=&quot;Lucida Console&quot;&gt;Skills_CurrentEditingField&lt;/font&gt;&lt;font face=&quot;Helvetica&quot;&gt; &lt;/font&gt;= &quot;Desc&quot; (Описание, по умолчанию при переходе между ID)&lt;/div&gt;" style="rounded=0;whiteSpace=wrap;html=1;" vertex="1" parent="1">
          <mxGeometry x="160" y="620" width="240" height="80" as="geometry" />
        </mxCell>
        <mxCell id="ocoKOHg3D9VgViNgcDqN-73" value="" style="endArrow=classic;html=1;rounded=0;entryX=0.5;entryY=0;entryDx=0;entryDy=0;exitX=0;exitY=0.5;exitDx=0;exitDy=0;" edge="1" parent="1" source="ocoKOHg3D9VgViNgcDqN-24" target="ocoKOHg3D9VgViNgcDqN-70">
          <mxGeometry width="50" height="50" relative="1" as="geometry">
            <mxPoint x="420" y="570" as="sourcePoint" />
            <mxPoint x="520" y="680" as="targetPoint" />
            <Array as="points">
              <mxPoint x="280" y="508" />
            </Array>
          </mxGeometry>
        </mxCell>
        <mxCell id="ocoKOHg3D9VgViNgcDqN-75" value="Задать текст в поле редактирования Json согласно&lt;span style=&quot;background-color: transparent; color: light-dark(rgb(0, 0, 0), rgb(255, 255, 255));&quot;&gt;&amp;nbsp;редактируемому полю&lt;/span&gt;" style="rounded=0;whiteSpace=wrap;html=1;" vertex="1" parent="1">
          <mxGeometry x="780" y="880" width="200" height="60" as="geometry" />
        </mxCell>
        <mxCell id="ocoKOHg3D9VgViNgcDqN-76" value="" style="endArrow=classic;html=1;rounded=0;exitX=0.5;exitY=1;exitDx=0;exitDy=0;entryX=0.5;entryY=0;entryDx=0;entryDy=0;" edge="1" parent="1" source="ocoKOHg3D9VgViNgcDqN-70" target="ocoKOHg3D9VgViNgcDqN-75">
          <mxGeometry width="50" height="50" relative="1" as="geometry">
            <mxPoint x="650" y="840" as="sourcePoint" />
            <mxPoint x="700" y="790" as="targetPoint" />
            <Array as="points">
              <mxPoint x="280" y="810" />
              <mxPoint x="880" y="810" />
            </Array>
          </mxGeometry>
        </mxCell>
        <mxCell id="ocoKOHg3D9VgViNgcDqN-77" value="" style="group" vertex="1" connectable="0" parent="1">
          <mxGeometry x="480" y="610" width="400" height="130" as="geometry" />
        </mxCell>
        <mxCell id="ocoKOHg3D9VgViNgcDqN-62" value="Отобразить имя навыка в поле редактирования" style="rounded=0;whiteSpace=wrap;html=1;" vertex="1" parent="ocoKOHg3D9VgViNgcDqN-77">
          <mxGeometry y="70" width="120" height="60" as="geometry" />
        </mxCell>
        <mxCell id="ocoKOHg3D9VgViNgcDqN-63" value="Отобразить имя навыка на&lt;div&gt;заголовке&lt;/div&gt;" style="rounded=0;whiteSpace=wrap;html=1;" vertex="1" parent="ocoKOHg3D9VgViNgcDqN-77">
          <mxGeometry x="140" y="70" width="120" height="60" as="geometry" />
        </mxCell>
        <mxCell id="ocoKOHg3D9VgViNgcDqN-64" value="Отобразить текущий ID на кнопке копирования ID (Заголовке ID)" style="rounded=0;whiteSpace=wrap;html=1;" vertex="1" parent="ocoKOHg3D9VgViNgcDqN-77">
          <mxGeometry x="280" y="70" width="120" height="60" as="geometry" />
        </mxCell>
        <mxCell id="ocoKOHg3D9VgViNgcDqN-66" value="" style="endArrow=classic;startArrow=classic;html=1;rounded=0;exitX=0.5;exitY=0;exitDx=0;exitDy=0;entryX=0.5;entryY=0;entryDx=0;entryDy=0;" edge="1" parent="ocoKOHg3D9VgViNgcDqN-77" source="ocoKOHg3D9VgViNgcDqN-62" target="ocoKOHg3D9VgViNgcDqN-64">
          <mxGeometry width="50" height="50" relative="1" as="geometry">
            <mxPoint x="60" y="40" as="sourcePoint" />
            <mxPoint x="340" y="40" as="targetPoint" />
            <Array as="points">
              <mxPoint x="60" />
              <mxPoint x="340" />
            </Array>
          </mxGeometry>
        </mxCell>
        <mxCell id="ocoKOHg3D9VgViNgcDqN-69" value="" style="endArrow=classic;html=1;rounded=0;entryX=0.5;entryY=0;entryDx=0;entryDy=0;" edge="1" parent="ocoKOHg3D9VgViNgcDqN-77" target="ocoKOHg3D9VgViNgcDqN-63">
          <mxGeometry width="50" height="50" relative="1" as="geometry">
            <mxPoint x="200" as="sourcePoint" />
            <mxPoint x="370" y="-50" as="targetPoint" />
          </mxGeometry>
        </mxCell>
        <mxCell id="ocoKOHg3D9VgViNgcDqN-78" value="" style="endArrow=classic;html=1;rounded=0;" edge="1" parent="1">
          <mxGeometry width="50" height="50" relative="1" as="geometry">
            <mxPoint x="680" y="560" as="sourcePoint" />
            <mxPoint x="880" y="810" as="targetPoint" />
            <Array as="points">
              <mxPoint x="930" y="560" />
              <mxPoint x="930" y="640" />
              <mxPoint x="930" y="810" />
            </Array>
          </mxGeometry>
        </mxCell>
        <mxCell id="ocoKOHg3D9VgViNgcDqN-80" value="Не менять текущее&lt;div&gt;редактируемое поле&lt;/div&gt;" style="edgeLabel;resizable=0;html=1;;align=center;verticalAlign=middle;" connectable="0" vertex="1" parent="1">
          <mxGeometry x="930" y="429.99956444549844" as="geometry">
            <mxPoint x="4" y="204" as="offset" />
          </mxGeometry>
        </mxCell>
        <mxCell id="ocoKOHg3D9VgViNgcDqN-84" value="Переключение между ID&lt;div&gt;или уровенм связи навыка&lt;/div&gt;&lt;div&gt;через интерфейс&lt;/div&gt;" style="shape=step;perimeter=stepPerimeter;whiteSpace=wrap;html=1;fixedSize=1;" vertex="1" parent="1">
          <mxGeometry x="250" y="175" width="210" height="80" as="geometry" />
        </mxCell>
        <mxCell id="ocoKOHg3D9VgViNgcDqN-87" value="" style="shape=flexArrow;endArrow=classic;html=1;rounded=0;exitX=1;exitY=0.5;exitDx=0;exitDy=0;entryX=0;entryY=0.25;entryDx=0;entryDy=0;" edge="1" parent="1" source="ocoKOHg3D9VgViNgcDqN-84" target="ocoKOHg3D9VgViNgcDqN-14">
          <mxGeometry width="50" height="50" relative="1" as="geometry">
            <mxPoint x="490" y="290" as="sourcePoint" />
            <mxPoint x="540" y="240" as="targetPoint" />
          </mxGeometry>
        </mxCell>
        <mxCell id="ocoKOHg3D9VgViNgcDqN-89" value="" style="endArrow=none;dashed=1;html=1;rounded=0;" edge="1" parent="1">
          <mxGeometry width="50" height="50" relative="1" as="geometry">
            <mxPoint x="880" y="940" as="sourcePoint" />
            <mxPoint x="880" y="1040" as="targetPoint" />
          </mxGeometry>
        </mxCell>
        <mxCell id="ocoKOHg3D9VgViNgcDqN-90" value="&lt;font face=&quot;Lucida Console&quot;&gt;Json_EditBox_TextChanged()&lt;/font&gt;&lt;div&gt;&lt;font face=&quot;Helvetica&quot;&gt;[Триггер изменения текста в поле редактирования Json]&lt;/font&gt;&lt;/div&gt;" style="shape=hexagon;perimeter=hexagonPerimeter2;whiteSpace=wrap;html=1;fixedSize=1;" vertex="1" parent="1">
          <mxGeometry x="740" y="1020" width="280" height="80" as="geometry" />
        </mxCell>
        <mxCell id="ocoKOHg3D9VgViNgcDqN-91" value="" style="endArrow=classic;html=1;rounded=0;" edge="1" parent="1">
          <mxGeometry width="50" height="50" relative="1" as="geometry">
            <mxPoint x="880" y="1010" as="sourcePoint" />
            <mxPoint x="880" y="1020" as="targetPoint" />
          </mxGeometry>
        </mxCell>
        <mxCell id="ocoKOHg3D9VgViNgcDqN-93" value="&lt;font face=&quot;Lucida Console&quot;&gt;else if (EditorMode == &quot;Skills&quot;)&lt;/font&gt;" style="shape=step;perimeter=stepPerimeter;whiteSpace=wrap;html=1;fixedSize=1;" vertex="1" parent="1">
          <mxGeometry x="730" y="1150" width="300" height="80" as="geometry" />
        </mxCell>
        <mxCell id="ocoKOHg3D9VgViNgcDqN-94" value="" style="endArrow=classic;html=1;rounded=0;exitX=0.5;exitY=1;exitDx=0;exitDy=0;entryX=0.5;entryY=0;entryDx=0;entryDy=0;" edge="1" parent="1" source="ocoKOHg3D9VgViNgcDqN-90" target="ocoKOHg3D9VgViNgcDqN-93">
          <mxGeometry width="50" height="50" relative="1" as="geometry">
            <mxPoint x="1060" y="1090" as="sourcePoint" />
            <mxPoint x="1110" y="1040" as="targetPoint" />
          </mxGeometry>
        </mxCell>
        <mxCell id="ocoKOHg3D9VgViNgcDqN-95" value="&lt;font face=&quot;Lucida Console&quot;&gt;switch(Skills_CurrentEditingField[0..4])&lt;/font&gt;" style="shape=step;perimeter=stepPerimeter;whiteSpace=wrap;html=1;fixedSize=1;" vertex="1" parent="1">
          <mxGeometry x="1050" y="1150" width="350" height="80" as="geometry" />
        </mxCell>
        <mxCell id="ocoKOHg3D9VgViNgcDqN-97" value="" style="endArrow=classic;html=1;rounded=0;exitX=1;exitY=0.5;exitDx=0;exitDy=0;" edge="1" parent="1" source="ocoKOHg3D9VgViNgcDqN-93" target="ocoKOHg3D9VgViNgcDqN-95">
          <mxGeometry width="50" height="50" relative="1" as="geometry">
            <mxPoint x="960" y="1250" as="sourcePoint" />
            <mxPoint x="1010" y="1200" as="targetPoint" />
          </mxGeometry>
        </mxCell>
        <mxCell id="ocoKOHg3D9VgViNgcDqN-98" value="" style="endArrow=none;html=1;rounded=0;exitX=1;exitY=0.5;exitDx=0;exitDy=0;" edge="1" parent="1" source="ocoKOHg3D9VgViNgcDqN-95">
          <mxGeometry width="50" height="50" relative="1" as="geometry">
            <mxPoint x="1430" y="1240" as="sourcePoint" />
            <mxPoint x="1440" y="1560" as="targetPoint" />
            <Array as="points">
              <mxPoint x="1440" y="1190" />
            </Array>
          </mxGeometry>
        </mxCell>
        <mxCell id="ocoKOHg3D9VgViNgcDqN-99" value="&lt;font face=&quot;Lucida Console&quot;&gt;&quot;Desc&quot;&lt;/font&gt;" style="html=1;shadow=0;dashed=0;align=center;verticalAlign=middle;shape=mxgraph.arrows2.arrow;dy=0;dx=10;notch=0;" vertex="1" parent="1">
          <mxGeometry x="1440" y="1200" width="100" height="30" as="geometry" />
        </mxCell>
        <mxCell id="ocoKOHg3D9VgViNgcDqN-101" value="Скрыть все кнопки уровней связи" style="rounded=1;whiteSpace=wrap;html=1;" vertex="1" parent="1">
          <mxGeometry x="1070" y="335" width="120" height="60" as="geometry" />
        </mxCell>
        <mxCell id="ocoKOHg3D9VgViNgcDqN-102" value="" style="endArrow=classic;html=1;rounded=0;exitX=1;exitY=0.5;exitDx=0;exitDy=0;entryX=0.5;entryY=0;entryDx=0;entryDy=0;" edge="1" parent="1" source="ocoKOHg3D9VgViNgcDqN-33" target="ocoKOHg3D9VgViNgcDqN-101">
          <mxGeometry width="50" height="50" relative="1" as="geometry">
            <mxPoint x="1150" y="410" as="sourcePoint" />
            <mxPoint x="1200" y="360" as="targetPoint" />
            <Array as="points">
              <mxPoint x="1130" y="280" />
            </Array>
          </mxGeometry>
        </mxCell>
        <mxCell id="ocoKOHg3D9VgViNgcDqN-103" value="Разблокировать только доступные" style="rounded=1;whiteSpace=wrap;html=1;" vertex="1" parent="1">
          <mxGeometry x="1070" y="455" width="120" height="60" as="geometry" />
        </mxCell>
        <mxCell id="ocoKOHg3D9VgViNgcDqN-104" value="" style="endArrow=classic;html=1;rounded=0;exitX=0.5;exitY=1;exitDx=0;exitDy=0;entryX=0.5;entryY=0;entryDx=0;entryDy=0;" edge="1" parent="1" source="ocoKOHg3D9VgViNgcDqN-101" target="ocoKOHg3D9VgViNgcDqN-103">
          <mxGeometry width="50" height="50" relative="1" as="geometry">
            <mxPoint x="1150" y="410" as="sourcePoint" />
            <mxPoint x="1200" y="360" as="targetPoint" />
          </mxGeometry>
        </mxCell>
        <mxCell id="ocoKOHg3D9VgViNgcDqN-108" value="&lt;div&gt;&lt;span style=&quot;font-family: &amp;quot;Lucida Console&amp;quot;;&quot;&gt;UpdatePreview_Target = Default&lt;/span&gt;&lt;font face=&quot;Lucida Console&quot;&gt;&lt;br&gt;&lt;/font&gt;&lt;/div&gt;&lt;font face=&quot;Lucida Console&quot;&gt;UpdatePreview_Text = &quot;&quot;&lt;/font&gt;" style="rounded=0;whiteSpace=wrap;html=1;" vertex="1" parent="1">
          <mxGeometry x="1050" y="1030" width="350" height="60" as="geometry" />
        </mxCell>
        <mxCell id="ocoKOHg3D9VgViNgcDqN-109" value="" style="endArrow=classic;html=1;rounded=0;entryX=0;entryY=1;entryDx=0;entryDy=0;" edge="1" parent="1" target="ocoKOHg3D9VgViNgcDqN-108">
          <mxGeometry width="50" height="50" relative="1" as="geometry">
            <mxPoint x="1010" y="1150" as="sourcePoint" />
            <mxPoint x="1220" y="1170" as="targetPoint" />
          </mxGeometry>
        </mxCell>
        <mxCell id="ocoKOHg3D9VgViNgcDqN-110" value="&lt;font face=&quot;Lucida Console&quot;&gt;default&lt;/font&gt;" style="html=1;shadow=0;dashed=0;align=center;verticalAlign=middle;shape=mxgraph.arrows2.arrow;dy=0;dx=10;notch=0;" vertex="1" parent="1">
          <mxGeometry x="1440" y="1400" width="100" height="30" as="geometry" />
        </mxCell>
        <mxCell id="ocoKOHg3D9VgViNgcDqN-111" value="" style="endArrow=classic;html=1;rounded=0;" edge="1" parent="1">
          <mxGeometry width="50" height="50" relative="1" as="geometry">
            <mxPoint x="880" y="840" as="sourcePoint" />
            <mxPoint x="1120" y="840" as="targetPoint" />
          </mxGeometry>
        </mxCell>
      </root>
    </mxGraphModel>
  </diagram>
</mxfile>
